<?xml version="1.0" encoding="UTF-8"?>
<svg
  viewBox="0 0 20 20"
  version="1.1"
  xmlns="http://www.w3.org/2000/svg"
  xmlns:xlink="http://www.w3.org/1999/xlink"
  xml:space="preserve"
>
  <!-- Generator: Sketch 48.2 (47327) - http://www.bohemiancoding.com/sketch -->
  <g>
    <path d="M13.4702,9.414 C12.6892,10.195 11.4232,10.195 10.6422,9.414 C9.8612,8.633 9.8612,7.367 10.6422,6.586 C11.4232,5.805 12.6892,5.805 13.4702,6.586 C14.2512,7.367 14.2512,8.633 13.4702,9.414 M18.0562,3 C18.0562,6.003 16.8872,8.826 14.7632,10.949 L12.3742,13.338 C13.4652,15.076 13.2632,17.399 11.7532,18.91 C11.6592,19.004 11.5322,19.057 11.3992,19.057 C11.2662,19.057 11.1392,19.004 11.0462,18.91 L8.2172,16.081 L3.9742,11.839 L1.1462,9.011 C0.9512,8.815 0.9512,8.499 1.1462,8.304 C1.9962,7.453 3.1262,6.985 4.3282,6.985 C5.1882,6.985 6.0072,7.234 6.7172,7.682 L9.1062,5.293 C11.2302,3.17 14.0532,2 17.0562,2 C17.6082,2 18.0562,2.447 18.0562,3 Z M3.207,14.7275 C3.895,14.0405 4.823,14.1005 5.389,14.6665 C5.672,14.9505 5.829,15.3285 5.828,15.7285 C5.828,16.1295 5.672,16.5055 5.388,16.7885 C4.599,17.5785 3.59,17.9965 2.561,17.9965 C2.284,17.9965 2.061,17.7725 2.061,17.4965 C2.061,16.4505 2.468,15.4675 3.207,14.7275 Z" id="path-1"></path>
  </g>
</svg>
